<svg
          width="318"
          height="1024"
          viewBox="0 0 318 1024"
          fill="none"
          xmlns="http://www.w3.org/2000/svg"
        >
          <path
            d="M401.849 -71.2297C438.064 -61.2614 476.053 43.544 485.856 169.604C496.294 297.608 478.442 444.894 480.129 599.067C482.45 755.185 503.352 920.217 497.01 1043.17C491.2 1166.09 457.614 1246.96 420.749 1244.93C383.885 1242.91 343.535 1154.05 304.293 1106.67C264.52 1059.31 225.649 1049.48 194.301 979.923C163.486 910.34 140.519 777.06 143.024 662.221C145.426 545.411 173.3 447.042 177.87 300.452C181.806 151.917 162.969 -44.8665 178.862 -87.2313C194.12 -131.541 244.535 -23.431 287.229 -11.8245C330.026 1.75425 365.53 -83.1703 401.849 -71.2297Z"
            fill="url(#paint0_linear_14_37)"
          />
          <defs>
            <linearGradient
              id="paint0_linear_14_37"
              x1="171.954"
              y1="1258.12"
              x2="850.936"
              y2="1033.24"
              gradientUnits="userSpaceOnUse"
            >
              <stop stop-color="#3784F8" />
              <stop offset="0.624" stop-color="#9C50EE" />
              <stop offset="1" stop-color="#FB1FE5" />
            </linearGradient>
          </defs>
</svg>