<svg
          width="793"
          height="1024"
          viewBox="0 0 793 1024"
          fill="none"
          xmlns="http://www.w3.org/2000/svg"
        >
          <path
            d="M759.609 205.11C792.953 329.57 810.963 417.657 826.639 509.179C842.315 600.701 855.562 697.431 835.541 771.076C815.426 846.495 762.042 898.828 709.97 967.237C656.731 1037.36 604.898 1121.79 561.214 1112.39C517.623 1101.21 483.35 994.486 469.637 906.624C454.85 818.705 461.885 746.158 450.187 681.521C437.509 615.055 407.173 556.555 404.351 487.048C401.435 419.315 424.867 342.291 466.925 218.226C508.984 94.1616 569.577 -75.1713 623.675 -79.4499C677.773 -83.7284 726.358 78.8771 759.609 205.11Z"
            fill="url(#paint0_linear_14_35)"
          />
          <defs>
            <linearGradient
              id="paint0_linear_14_35"
              x1="370.848"
              y1="1102.82"
              x2="1177.33"
              y2="844.359"
              gradientUnits="userSpaceOnUse"
            >
              <stop stop-color="#F87537" />
              <stop offset="1" stop-color="#FBA81F" />
            </linearGradient>
          </defs>
        </svg>