<svg
          width="1177"
          height="1024"
          viewBox="0 0 1177 1024"
          fill="none"
          xmlns="http://www.w3.org/2000/svg"
        >
          <path
            d="M952.314 0.728511C1041.4 81.8033 1081.13 233.124 1140.63 343.11C1201.25 452.473 1282 518.51 1336.6 627.634C1392.33 736.134 1421.15 886.354 1375.31 986.822C1328.34 1087.91 1205.95 1137.89 1073.27 1156.03C938.71 1173.43 794.233 1157.02 729.912 1062.22C665.59 967.414 682.161 790.245 699.363 675.273C717.691 559.677 737.018 504.287 718.848 383.904C699.552 264.144 641.633 80.0148 683.017 -7.25921C724.034 -92.5423 863.229 -80.3462 952.314 0.728511Z"
            fill="url(#paint0_linear_14_31)"
          />
          <defs>
            <linearGradient
              id="paint0_linear_14_31"
              x1="870.197"
              y1="1316.81"
              x2="1522.75"
              y2="214.318"
              gradientUnits="userSpaceOnUse"
            >
              <stop stop-color="#3CED63" />
              <stop offset="1" stop-color="#124B1E" />
            </linearGradient>
          </defs>
        </svg>