<svg id="visual" viewBox="0 0 900 600" width="900" height="600" xmlns="http://www.w3.org/2000/svg" xmlns:xlink="http://www.w3.org/1999/xlink" version="1.1"><rect x="0" y="0" width="900" height="600" fill="#001220"></rect><path d="M708 600L694.7 587.5C681.3 575 654.7 550 655 525C655.3 500 682.7 475 694.2 450C705.7 425 701.3 400 693.2 375C685 350 673 325 675.5 300C678 275 695 250 693.3 225C691.7 200 671.3 175 671.3 150C671.3 125 691.7 100 697.7 75C703.7 50 695.3 25 691.2 12.5L687 0L900 0L900 12.5C900 25 900 50 900 75C900 100 900 125 900 150C900 175 900 200 900 225C900 250 900 275 900 300C900 325 900 350 900 375C900 400 900 425 900 450C900 475 900 500 900 525C900 550 900 575 900 587.5L900 600Z" fill="#69306d"></path><path d="M712 600L708.2 587.5C704.3 575 696.7 550 696.7 525C696.7 500 704.3 475 712.3 450C720.3 425 728.7 400 730.3 375C732 350 727 325 721.7 300C716.3 275 710.7 250 715 225C719.3 200 733.7 175 730.2 150C726.7 125 705.3 100 704.3 75C703.3 50 722.7 25 732.3 12.5L742 0L900 0L900 12.5C900 25 900 50 900 75C900 100 900 125 900 150C900 175 900 200 900 225C900 250 900 275 900 300C900 325 900 350 900 375C900 400 900 425 900 450C900 475 900 500 900 525C900 550 900 575 900 587.5L900 600Z" fill="#4b255f"></path><path d="M784 600L784.7 587.5C785.3 575 786.7 550 787 525C787.3 500 786.7 475 784.2 450C781.7 425 777.3 400 776.5 375C775.7 350 778.3 325 779.2 300C780 275 779 250 783.7 225C788.3 200 798.7 175 797.2 150C795.7 125 782.3 100 772 75C761.7 50 754.3 25 750.7 12.5L747 0L900 0L900 12.5C900 25 900 50 900 75C900 100 900 125 900 150C900 175 900 200 900 225C900 250 900 275 900 300C900 325 900 350 900 375C900 400 900 425 900 450C900 475 900 500 900 525C900 550 900 575 900 587.5L900 600Z" fill="#2d1b4f"></path><path d="M847 600L842.7 587.5C838.3 575 829.7 550 830.8 525C832 500 843 475 848.7 450C854.3 425 854.7 400 844.7 375C834.7 350 814.3 325 811 300C807.7 275 821.3 250 832.7 225C844 200 853 175 847 150C841 125 820 100 816.7 75C813.3 50 827.7 25 834.8 12.5L842 0L900 0L900 12.5C900 25 900 50 900 75C900 100 900 125 900 150C900 175 900 200 900 225C900 250 900 275 900 300C900 325 900 350 900 375C900 400 900 425 900 450C900 475 900 500 900 525C900 550 900 575 900 587.5L900 600Z" fill="#0e103d"></path></svg>